<?xml version="1.0" encoding="utf-8"?>
<!-- Generator: Adobe Illustrator 24.0.0, SVG Export Plug-In . SVG Version: 6.00 Build 0)  -->
<svg version="1.1" id="bzblog-updated-options-for-social-media-icons-main_xA0_Image_1_"
	 xmlns="http://www.w3.org/2000/svg" xmlns:xlink="http://www.w3.org/1999/xlink" x="0px" y="0px" viewBox="0 0 1052 186"
	 style="enable-background:new 0 0 1052 186;" xml:space="preserve">
<style type="text/css">
	.st0{fill:#F15746;stroke:#000000;stroke-width:4;stroke-miterlimit:10;}
	.st1{fill:none;stroke:#000000;stroke-width:4;stroke-miterlimit:10;}
</style>
<path class="st0" d="M683.2,148.8c-13.7-0.6-21.4-6.1-22.9-20.1c-1.8-17.3-1.4-34.8-1.4-52.2c0-6.4,0.7-12.9,2.2-19.1
	c2.6-10.8,9.7-16,20.8-16.4c19.3-0.6,90.2-0.8,106.3,0.1c8.5,0.5,15.5,4.9,17.6,13.5c2.1,8.4,3.7,17.2,3.8,25.9
	c0.1,15.9-0.4,31.9-1.9,47.7c-1.3,14-9.7,20.4-23.8,20.8C767.6,149.5,700.3,149.5,683.2,148.8z M714.2,121.8
	c18.1-9,35.5-17.7,53.7-26.8c-18.4-9.2-35.9-18-53.7-26.9C714.2,86.1,714.2,103.5,714.2,121.8z"/>
<path class="st0" d="M352.2,36.2c-3.7,5.1-7.4,10.2-11.5,15.8c4.8-1.3,9.3-2.5,13.9-3.8c0.3,0.2,0.5,0.5,0.8,0.7
	c-3.6,3.9-6.9,8.1-10.8,11.7c-2.6,2.3-3.4,4.7-3.6,8.1c-2,38.5-17.7,69-53.9,85.3c-26,11.8-52.2,9.2-77.1-5c-0.5-0.3-1-0.8-2.6-2.1
	c16.7,0.8,30.7-3.3,44-13.8c-14.4-2.1-23.4-9.2-28.3-22.1c4.1-0.2,7.8-0.4,11.5-0.5c-13.8-6.7-22-16.6-22.7-32.4
	c4.3,1.2,8.2,2.2,12,3.3c-12-12.9-15.1-26.8-7.9-43.7c8.4,10.1,17.5,18.2,28.4,24.1c10.9,5.9,22.5,9.3,34.8,9.9
	c0.3-5,0.1-9.7,0.9-14.1c2.2-11.6,8.8-20.2,20.1-24.1c11-3.9,21.2-1.6,30.3,6.1c1.4,1.2,4.2,1.8,6,1.3c5-1.4,9.8-3.6,14.7-5.4
	C351.5,35.7,351.8,36,352.2,36.2z"/>
<path class="st0" d="M922,174.3c0-6.7,0-12.6,0-19.3c-8.9,0-17.5,0-26.1,0c-11,0-11,0-11-11.1c0-27.5,0.2-55-0.1-82.5
	c-0.1-8.1,0.8-15.7,4.2-23.1c2.3-4.9,2.9-11.9,6.6-14.5c3.6-2.5,10.2-0.8,15.6-0.8c38.8,0,77.6,0,116.4-0.1c4,0,5.4,0.9,5.4,5.2
	c-0.2,27.6,0,55.3-0.2,83c0,2.1-0.9,4.7-2.3,6.1c-11.5,11.6-23.1,23.1-34.9,34.3c-2,1.9-5.4,3.2-8.2,3.4c-6.8,0.5-13.7,0.4-20.5,0.1
	c-3.9-0.2-6.6,1.1-9.1,3.8c-4,4.3-8,8.5-12.5,12.2c-2,1.7-5,2.9-7.7,3.2C932.7,174.6,927.7,174.3,922,174.3z M939,150.5
	c6.2-5.9,11.4-11.3,17.1-16c2.2-1.8,5.4-3.1,8.3-3.3c8.8-0.4,17.7-0.4,26.5-0.1c4,0.1,6.9-1.1,9.6-4c4.9-5.2,10-10.3,15.2-15.2
	c2.5-2.3,3.5-4.7,3.5-8.2c-0.2-20.7-0.1-41.3-0.1-62c0-1.6,0-3.2,0-5.2c-36.9,0-73.3,0-109.8,0c0,31.6,0,62.8,0,94.5
	c8.4,0,16.5,0.1,24.6-0.1c3.8-0.1,5.5,1,5.2,5.1C938.7,140.5,939,145,939,150.5z"/>
<path class="st0" d="M467.6,172.9c-18.8-1.9-34-17.8-34.5-36.6c-0.7-24.9-0.7-49.9,0-74.9c0.6-20.3,18-36.7,38.3-37.3
	c19.6-0.6,39.3-1,58.9-0.9c7.3,0,14.7,0.7,21.7,2.5c19.1,4.9,30.3,20.1,30.8,41.9c0.4,20.8,0.5,41.7,0,62.5
	c-0.6,27.2-18.1,43.9-45.4,44c-10.2,0-20.3,0-30.5,0C507,174.2,480.7,174.2,467.6,172.9z M506.9,160c10.8,0,21.7,0.1,32.5-0.1
	c3.4-0.1,7-0.7,10.2-1.7c12.5-3.9,18.9-12.9,19.2-28.7c0.5-20.5,0.5-41,0-61.5c-0.4-17-7.9-26.4-22.6-29.6c-4.5-1-9.2-1.3-13.9-1.4
	c-16.5-0.2-33-0.3-49.5,0.1c-6.2,0.1-12.7,0.7-18.6,2.6c-13.6,4.4-17.8,15.7-18.1,28.5c-0.4,20.1-0.6,40.3,0,60.5
	c0.7,21.6,11.2,31.1,32.7,31.2C488.3,160,497.6,160,506.9,160z"/>
<path class="st0" d="M88.2,22.6c0.5,1.5,0.8,2,0.8,2.4c0,7.8,0,15.7,0,24.4c-4.2,0-8.2,0-12.3,0C66.6,49.5,65,51.2,65,61
	c0,3.6,0,7.3,0,11.6c8.1,0,15.9,0,24.1,0c-0.9,8.5-1.5,16.2-2.6,23.8c-0.1,1-2.5,2.4-3.9,2.4C77,99.2,71.4,99,65.2,99
	c0,25,0,49.7,0,74.8c-10.9,0-21.3,0-32.3,0c0-24.7,0-49.4,0-74.6c-5.5,0-10.4,0-15.6,0c0-8.9,0-17.3,0-26.5c4,0,7.9-0.1,11.8,0
	c2.8,0.1,3.7-1,3.7-3.8c0.2-8.1,0-16.4,1.4-24.3c2.1-11.9,10.9-19.5,23-20.6C67.5,23.2,77.8,23,88.2,22.6z"/>
<path class="st0" d="M982,101.8c0-12.5,0-24.6,0.1-36.8c0-0.9,1.4-1.8,2.2-2.7c0.2-0.2,0.6-0.1,1-0.1c10.1-1.2,10.7-0.7,10.7,9.4
	c0,10,0,19.9,0,30.2C991.4,101.8,987.1,101.8,982,101.8z"/>
<path class="st0" d="M959,101.6c-13.8,1.6-13.8,1.6-13.8-11.2c0-8,0.1-15.9-0.1-23.9c-0.1-3.2,1-4.5,4.3-4.4
	c11.9,0.2,9.4-0.9,9.6,9.4C959.1,81.5,959,91.4,959,101.6z"/>
<path class="st0" d="M469,99c-0.9-20.2,16.6-38.8,38.1-39.1c21.1-0.3,39.9,16.3,39.7,39.1c-0.2,22.3-17.3,38.6-39,38.9
	C486.3,138.2,469,120.6,469,99z M507.6,74C493.6,74,483,84.7,483,98.9c0,14,10.9,25.1,24.7,25c13.9-0.1,25.4-10.8,25.2-25.3
	C532.6,82.9,519.7,73.5,507.6,74z"/>
<path class="st0" d="M538.8,57.8c0.2-4.6,4.6-8.8,9.1-8.8c5,0.1,9.5,4.9,9.2,9.8c-0.3,4.8-5,8.8-9.8,8.6
	C542.1,67.2,538.5,63.1,538.8,57.8z"/>
<path class="st1" d="M507.6,74c12.1-0.5,25,8.9,25.2,24.7c0.2,14.5-11.3,25.3-25.2,25.3c-13.8,0.1-24.7-11-24.7-25
	C483,84.7,493.6,74,507.6,74z"/>
<image style="overflow:visible;" width="4000" height="1818" xlink:href="TeamLogo.png"  transform="matrix(0.1939 0 0 0.1939 1440.8545 -54.5304)">
</image>
</svg>
